<?xml version="1.0" encoding="utf-8"?>
<!-- Generator: Adobe Illustrator 27.2.0, SVG Export Plug-In . SVG Version: 6.00 Build 0)  -->
<svg version="1.1" id="Calque_1" xmlns="http://www.w3.org/2000/svg" xmlns:xlink="http://www.w3.org/1999/xlink" x="0px" y="0px"
	 viewBox="0 0 96 96" style="enable-background:new 0 0 96 96;" xml:space="preserve">
<style type="text/css">
	.st0{fill:#FFFFFF;}
	.st1{fill:#455DA7;}
</style>
<rect x="0" class="st0" width="96" height="96"/>
<g>
	<path class="st1" d="M70.2,22.7c-2.5-0.5-5-0.8-7.6-0.9c-0.4,0-0.8,0-1.2,0c-0.7,0-1.4,0-2.1,0C51.9,22.2,45,24.5,39,28.1
		c-1,0.6-1.9,1.2-2.8,1.9c-0.6,0.4-1.1,0.8-1.6,1.2c-1.7,1.3-3.3,2.8-4.7,4.3c-1.7,1.8-3.3,3.7-4.6,5.8c-0.7-1-1.4-2.1-2.1-3.2
		c-0.6-0.9-1.1-1.9-1.5-2.9c-0.8-1.6-1.4-3.3-2-5C23,24.5,28,20.1,34,17.4c1-0.5,2.1-0.9,3.2-1.3c3.4-1.2,7-1.8,10.8-1.8
		c3.4,0,6.7,0.5,9.9,1.5c1.3,0.4,2.6,0.9,3.8,1.4C64.8,18.6,67.7,20.5,70.2,22.7z"/>
	<path class="st1" d="M41.3,34c6.2,0.1,12,1.6,17.2,4.2c-1,3.9-2.5,7.5-4.6,10.8C48.6,45.2,44.2,40,41.3,34z"/>
	<path class="st1" d="M59.2,34.9c-5.6-2.6-11.8-4.1-18.4-4.2c5.6-3.3,12-5.3,18.8-5.6c0.1,1,0.1,2,0.1,3
		C59.8,30.5,59.6,32.7,59.2,34.9z"/>
	<path class="st1" d="M58.1,61.6c3,0,5.9-0.3,8.7-0.9c-6.7,5-15,7.9-24,7.9c-2,0-3.9-0.1-5.9-0.4c-2-0.3-4-0.7-5.8-1.3
		c-3.5-1.1-6.9-2.6-9.9-4.6c-1.1-0.7-2.1-1.4-3.1-2.1c-0.7-0.5-1.4-1.1-2.1-1.7c-1.1-3.3-1.7-6.8-1.7-10.5c0-1.6,0.1-3.1,0.3-4.6
		c0.2-1.7,0.6-3.3,1-4.9c0.5-1.6,1-3.1,1.7-4.6c0.4,0.9,0.8,1.9,1.2,2.8c0.5,1,1,2,1.5,2.9c0.9,1.6,2,3.2,3.1,4.7
		c0.7,0.9,1.4,1.8,2.2,2.7c5.2,5.8,11.8,10.2,19.4,12.6c1.3,0.4,2.5,0.7,3.8,1C51.8,61.2,54.9,61.6,58.1,61.6z"/>
	<path class="st1" d="M54.9,53.6c2.9,1.8,6,3.2,9.3,4.3c-2,0.3-4,0.5-6.1,0.5c-2.3,0-4.5-0.2-6.6-0.6c-1.3-0.2-2.5-0.5-3.7-0.8
		c-8.1-2.2-15.2-6.8-20.5-13c2.3-3.7,5.2-6.9,8.5-9.7c0.7-0.1,1.3-0.1,2-0.2c3.2,7.1,8.2,13.2,14.4,17.7C53.1,52.4,54,53,54.9,53.6z
		"/>
	<path class="st1" d="M81,41.4c-1.1,3.1-2.5,5.9-4.2,8.6c-0.6,1-1.3,2-2,2.9c-0.8,1-1.6,1.9-2.4,2.8c-0.4,0.2-0.9,0.3-1.3,0.5
		c-5.2-0.8-10-2.7-14.4-5.3c2.1-3.4,3.7-7.1,4.8-11c0.3-1.1,0.6-2.2,0.8-3.3c0.5-2.7,0.8-5.5,0.8-8.3c0-1,0-2-0.1-3
		c4,0.1,7.9,0.9,11.6,2.1C77.7,31.3,80,36.2,81,41.4z"/>
	<path class="st1" d="M81.6,48.1c0,0.9,0,1.8-0.1,2.7c-0.1,1.5-0.3,2.9-0.6,4.3c-0.1,0.5-0.2,1-0.4,1.5c0,0,0,0,0,0.1
		c-0.3,1.1-0.6,2.2-1,3.2c-0.2,0.5-0.4,1-0.6,1.5c-5.2,11.9-17,20.2-30.9,20.2c-9.4,0-17.9-3.8-24-10c-1-1-1.9-2-2.7-3.1
		c-0.1-0.1-0.2-0.2-0.3-0.4c-0.9-1.1-1.6-2.3-2.3-3.5c0.7,0.5,1.5,0.9,2.2,1.4c1.4,0.8,2.8,1.5,4.2,2.1c1.9,0.8,3.8,1.5,5.8,2.1
		c3.7,1.1,7.7,1.6,11.7,1.6c11.7,0,22.3-4.6,30.2-12.1l1.2-1.2c0.6-0.6,1.1-1.2,1.6-1.8c0.2-0.2,0.5-0.5,0.7-0.8
		c0.8-0.9,1.5-1.9,2.1-2.8c0.2-0.2,0.3-0.4,0.4-0.6c0,0,0,0,0,0C80,51.1,80.9,49.6,81.6,48.1z"/>
</g>
</svg>
