<?xml version="1.0" encoding="utf-8"?>
<!-- Generator: Adobe Illustrator 27.2.0, SVG Export Plug-In . SVG Version: 6.00 Build 0)  -->
<svg version="1.1" id="Calque_1" xmlns="http://www.w3.org/2000/svg" xmlns:xlink="http://www.w3.org/1999/xlink" x="0px" y="0px"
	 viewBox="0 0 96 96" style="enable-background:new 0 0 96 96;" xml:space="preserve">
<style type="text/css">
	.st0{fill:#455DA7;}
	.st1{fill:#FFFFFF;}
</style>
<path class="st0" d="M84,96H12C5.4,96,0,90.6,0,84V12C0,5.4,5.4,0,12,0h72c6.6,0,12,5.4,12,12v72C96,90.6,90.6,96,84,96z"/>
<g>
	<path class="st1" d="M76.3,15.7c-3.2-0.6-6.4-1-9.7-1.1c-0.5,0-1,0-1.5,0c-0.9,0-1.8,0-2.7,0c-9.4,0.5-18.3,3.4-25.9,8
		c-1.3,0.8-2.4,1.5-3.6,2.4c-0.8,0.5-1.4,1-2,1.5c-2.2,1.7-4.2,3.6-6,5.5c-2.2,2.3-4.2,4.7-5.9,7.4c-0.9-1.3-1.8-2.7-2.7-4.1
		c-0.8-1.1-1.4-2.4-1.9-3.7c-1-2-1.8-4.2-2.6-6.4C16.1,18,22.5,12.4,30.1,9c1.3-0.6,2.7-1.1,4.1-1.7C38.6,5.8,43.2,5,48,5
		c4.3,0,8.6,0.6,12.6,1.9c1.7,0.5,3.3,1.1,4.9,1.8C69.5,10.5,73.2,12.9,76.3,15.7z"/>
	<path class="st1" d="M39.5,30.1c7.9,0.1,15.3,2,22,5.4c-1.3,5-3.2,9.6-5.9,13.8C48.8,44.4,43.2,37.8,39.5,30.1z"/>
	<path class="st1" d="M62.3,31.3c-7.1-3.3-15.1-5.2-23.5-5.4c7.1-4.2,15.3-6.8,24-7.1c0.1,1.3,0.1,2.6,0.1,3.8
		C63.1,25.7,62.8,28.5,62.3,31.3z"/>
	<path class="st1" d="M60.9,65.4c3.8,0,7.5-0.4,11.1-1.1c-8.6,6.4-19.1,10.1-30.6,10.1c-2.6,0-5-0.1-7.5-0.5
		c-2.6-0.4-5.1-0.9-7.4-1.7c-4.5-1.4-8.8-3.3-12.6-5.9c-1.4-0.9-2.7-1.8-4-2.7c-0.9-0.6-1.8-1.4-2.7-2.2C5.8,57.2,5,52.7,5,48
		c0-2,0.1-4,0.4-5.9c0.3-2.2,0.8-4.2,1.3-6.3c0.6-2,1.3-4,2.2-5.9c0.5,1.1,1,2.4,1.5,3.6c0.6,1.3,1.3,2.6,1.9,3.7c1.1,2,2.6,4.1,4,6
		c0.9,1.1,1.8,2.3,2.8,3.4c6.6,7.4,15.1,13,24.8,16.1c1.7,0.5,3.2,0.9,4.9,1.3C52.9,64.9,56.8,65.4,60.9,65.4z"/>
	<path class="st1" d="M56.8,55.2c3.7,2.3,7.7,4.1,11.9,5.5c-2.6,0.4-5.1,0.6-7.8,0.6c-2.9,0-5.7-0.3-8.4-0.8c-1.7-0.3-3.2-0.6-4.7-1
		c-10.3-2.8-19.4-8.7-26.2-16.6c2.9-4.7,6.6-8.8,10.8-12.4c0.9-0.1,1.7-0.1,2.6-0.3c4.1,9.1,10.5,16.8,18.4,22.6
		C54.5,53.6,55.7,54.4,56.8,55.2z"/>
	<path class="st1" d="M90.1,39.6c-1.4,4-3.2,7.5-5.4,11c-0.8,1.3-1.7,2.6-2.6,3.7c-1,1.3-2,2.4-3.1,3.6c-0.5,0.3-1.1,0.4-1.7,0.6
		c-6.6-1-12.8-3.4-18.4-6.8c2.7-4.3,4.7-9.1,6.1-14c0.4-1.4,0.8-2.8,1-4.2c0.6-3.4,1-7,1-10.6c0-1.3,0-2.6-0.1-3.8
		c5.1,0.1,10.1,1.1,14.8,2.7C85.9,26.7,88.9,33,90.1,39.6z"/>
	<path class="st1" d="M90.9,48.1c0,1.1,0,2.3-0.1,3.4c-0.1,1.9-0.4,3.7-0.8,5.5c-0.1,0.6-0.3,1.3-0.5,1.9c0,0,0,0,0,0.1
		c-0.4,1.4-0.8,2.8-1.3,4.1c-0.3,0.6-0.5,1.3-0.8,1.9C80.8,80.3,65.8,90.9,48,90.9c-12,0-22.8-4.9-30.6-12.8c-1.3-1.3-2.4-2.6-3.4-4
		c-0.1-0.1-0.3-0.3-0.4-0.5c-1.1-1.4-2-2.9-2.9-4.5c0.9,0.6,1.9,1.1,2.8,1.8c1.8,1,3.6,1.9,5.4,2.7c2.4,1,4.9,1.9,7.4,2.7
		c4.7,1.4,9.8,2,14.9,2c14.9,0,28.5-5.9,38.5-15.4l1.5-1.5c0.8-0.8,1.4-1.5,2-2.3c0.3-0.3,0.6-0.6,0.9-1c1-1.1,1.9-2.4,2.7-3.6
		c0.3-0.3,0.4-0.5,0.5-0.8l0,0C88.9,52,90,50.1,90.9,48.1z"/>
</g>
</svg>
