<?xml version="1.0" encoding="utf-8"?>
<!-- Generator: Adobe Illustrator 27.2.0, SVG Export Plug-In . SVG Version: 6.00 Build 0)  -->
<svg version="1.1" id="Calque_1" xmlns="http://www.w3.org/2000/svg" xmlns:xlink="http://www.w3.org/1999/xlink" x="0px" y="0px"
	 viewBox="0 0 127.1 22.2" style="enable-background:new 0 0 127.1 22.2;" xml:space="preserve">
<style type="text/css">
	.st0{fill:#455DA7;}
</style>
<path class="st0" d="M18.1,2.7c-0.8-0.2-1.6-0.3-2.5-0.3c-0.1,0-0.3,0-0.4,0c-0.2,0-0.5,0-0.7,0c-2.4,0.1-4.6,0.8-6.6,2
	C7.7,4.6,7.3,4.8,7.1,5C6.9,5.2,6.7,5.3,6.5,5.4C6,5.9,5.5,6.3,5,6.8C4.4,7.4,3.9,8,3.5,8.7C3.2,8.4,3,8,2.8,7.6
	C2.6,7.3,2.5,7,2.3,6.7C2.1,6.2,1.9,5.6,1.7,5.1C2.8,3.3,4.4,1.9,6.3,1c0.3-0.2,0.7-0.3,1-0.4C8.5,0.2,9.7,0,10.9,0
	c1.1,0,2.2,0.2,3.2,0.5c0.4,0.1,0.8,0.3,1.2,0.5C16.3,1.4,17.2,2,18.1,2.7z"/>
<path class="st0" d="M8.7,6.4c2,0,3.9,0.5,5.6,1.4c-0.3,1.2-0.8,2.4-1.5,3.5C11.1,10,9.7,8.3,8.7,6.4z"/>
<path class="st0" d="M14.5,6.7c-1.8-0.9-3.8-1.3-5.9-1.4c1.8-1.1,3.9-1.7,6.1-1.8c0,0.3,0,0.6,0,1C14.7,5.2,14.6,5.9,14.5,6.7z"/>
<path class="st0" d="M14.2,15.3c1,0,1.9-0.1,2.8-0.3c-2.2,1.6-4.9,2.6-7.8,2.6c-0.6,0-1.3,0-1.9-0.1C6.7,17.3,6,17.2,5.4,17
	c-1.1-0.3-2.2-0.8-3.2-1.5c-0.3-0.2-0.7-0.4-1-0.7c-0.2-0.2-0.4-0.4-0.7-0.6C0.2,13.2,0,12.1,0,10.9c0-0.5,0-1,0.1-1.5
	c0.1-0.5,0.2-1.1,0.3-1.6c0.1-0.5,0.3-1,0.6-1.5c0.1,0.3,0.2,0.6,0.4,0.9c0.2,0.3,0.3,0.6,0.5,0.9c0.3,0.5,0.6,1,1,1.5
	c0.2,0.3,0.5,0.6,0.7,0.9c1.7,1.9,3.8,3.3,6.3,4.1c0.4,0.1,0.8,0.2,1.2,0.3C12.1,15.2,13.1,15.3,14.2,15.3z"/>
<path class="st0" d="M13.1,12.7c0.9,0.6,1.9,1,3,1.4c-0.6,0.1-1.3,0.1-2,0.1c-0.7,0-1.4-0.1-2.1-0.2c-0.4-0.1-0.8-0.2-1.2-0.3
	c-2.6-0.7-4.9-2.2-6.6-4.2c0.7-1.2,1.7-2.2,2.8-3.1c0.2,0,0.4,0,0.6-0.1c1,2.3,2.6,4.3,4.7,5.7C12.5,12.3,12.8,12.5,13.1,12.7z"/>
<path class="st0" d="M21.6,8.7c-0.3,1-0.8,1.9-1.4,2.8c-0.2,0.3-0.4,0.6-0.7,0.9c-0.2,0.3-0.5,0.6-0.8,0.9c-0.1,0.1-0.3,0.1-0.4,0.1
	c-1.7-0.3-3.2-0.9-4.6-1.7c0.7-1.1,1.2-2.3,1.5-3.6c0.1-0.3,0.2-0.7,0.3-1.1c0.2-0.9,0.3-1.8,0.3-2.7c0-0.3,0-0.7,0-1
	c1.3,0,2.6,0.3,3.7,0.7C20.5,5.5,21.2,7.1,21.6,8.7z"/>
<path class="st0" d="M21.8,10.9c0,0.3,0,0.6,0,0.9c0,0.5-0.1,0.9-0.2,1.4c0,0.2-0.1,0.3-0.1,0.5c0,0,0,0,0,0c-0.1,0.4-0.2,0.7-0.3,1
	c-0.1,0.2-0.1,0.3-0.2,0.5c-1.7,3.9-5.5,6.5-10,6.5c-3,0-5.8-1.2-7.7-3.2c-0.3-0.3-0.6-0.6-0.9-1c0,0-0.1-0.1-0.1-0.1
	c-0.3-0.4-0.5-0.7-0.8-1.1c0.2,0.2,0.5,0.3,0.7,0.4C2.6,17,3,17.2,3.5,17.4c0.6,0.3,1.2,0.5,1.9,0.7c1.2,0.3,2.5,0.5,3.8,0.5
	c3.8,0,7.2-1.5,9.8-3.9l0.4-0.4c0.2-0.2,0.4-0.4,0.5-0.6c0.1-0.1,0.1-0.2,0.2-0.2c0.2-0.3,0.5-0.6,0.7-0.9c0.1-0.1,0.1-0.1,0.1-0.2
	c0,0,0,0,0,0C21.2,11.9,21.5,11.4,21.8,10.9z"/>
<path class="st0" d="M19.4,14.3c-0.1,0.1-0.3,0.3-0.4,0.4"/>
<g>
	<g>
		<path class="st0" d="M45.3,22.1H42l-2.1-4.6h0L35.1,6.9l-4.8,10.6h0l-2.1,4.6h-3.3l10.2-22L45.3,22.1z"/>
		<path class="st0" d="M44.3,7.9V5.5h11.1v2.3H44.3z M48.7,22.2v-13h2.4v13H48.7z"/>
		<path class="st0" d="M58.3,5.5h2.4v16.7h-2.4V5.5z M62,15.1v-2.4h5.1v2.4H62z M71,5.5v16.7h-2.4v-7.2h0v-2.4h0V5.5H71z"/>
		<path class="st0" d="M83.7,5.5v2.4h-9.5V5.5H83.7z M74.2,15.1v-2.4h8.3v2.4H74.2z M76.6,19.8h7.2v2.4h-9.5v-2.4L76.6,19.8
			L76.6,19.8z"/>
		<path class="st0" d="M86.8,5.5h2.4v16.7h-2.4V5.5z M90.5,22.2v-2.4h5.4v2.4H90.5z"/>
		<path class="st0" d="M113.1,22.2h-2.6l-1.6-3.6h0l-3.7-8.3l-3.7,8.3h0l-1.6,3.6h-2.6l8-17.1L113.1,22.2z"/>
		<path class="st0" d="M127.1,17c0,3.1-2.5,5.4-6.6,5.4c-4.2,0-6.5-2.5-6.7-2.8l1.3-2.2c1.5,1.6,3.5,2.6,5.5,2.6
			c2.6,0,4.1-1.1,4.1-2.7c0-1.4-1.6-2.3-4-2.7c-4.9-0.8-6.3-2.6-6.3-4.9c0-2.9,2.2-5.1,6.3-5.1c0.7,0,3.5,0.1,5.7,2.1l-1.2,2.3
			c-0.9-0.9-2.3-1.9-4.5-1.9c-2.4,0-3.8,0.9-3.8,2.5c0,1.4,1.2,2,4,2.5C125,12.8,127.1,14.1,127.1,17z"/>
	</g>
</g>
</svg>
